<mxfile host="app.diagrams.net" agent="Mozilla/5.0 (Windows NT 10.0; Win64; x64; rv:133.0) Gecko/20100101 Firefox/133.0" version="25.0.3">
  <diagram name="PÃ¡gina-1" id="JgfcoHkllbrlLaRTd0Cl">
    <mxGraphModel dx="2150" dy="1475" grid="1" gridSize="10" guides="1" tooltips="1" connect="1" arrows="1" fold="1" page="1" pageScale="1" pageWidth="1100" pageHeight="850" math="0" shadow="0">
      <root>
        <mxCell id="0" />
        <mxCell id="1" parent="0" />
        <mxCell id="_KpGgJKSNvv7z9f8apKj-1" value="Proveedor" style="whiteSpace=wrap;html=1;align=center;" parent="1" vertex="1">
          <mxGeometry x="-800" y="-406" width="100" height="40" as="geometry" />
        </mxCell>
        <mxCell id="_KpGgJKSNvv7z9f8apKj-11" style="edgeStyle=orthogonalEdgeStyle;rounded=0;orthogonalLoop=1;jettySize=auto;html=1;" parent="1" source="_KpGgJKSNvv7z9f8apKj-2" target="_KpGgJKSNvv7z9f8apKj-5" edge="1">
          <mxGeometry relative="1" as="geometry" />
        </mxCell>
        <mxCell id="_KpGgJKSNvv7z9f8apKj-2" value="Incluir" style="shape=rhombus;perimeter=rhombusPerimeter;whiteSpace=wrap;html=1;align=center;" parent="1" vertex="1">
          <mxGeometry x="310" y="-800" width="120" height="60" as="geometry" />
        </mxCell>
        <mxCell id="_KpGgJKSNvv7z9f8apKj-10" style="edgeStyle=orthogonalEdgeStyle;rounded=0;orthogonalLoop=1;jettySize=auto;html=1;endArrow=none;endFill=0;" parent="1" source="_KpGgJKSNvv7z9f8apKj-3" target="_KpGgJKSNvv7z9f8apKj-2" edge="1">
          <mxGeometry relative="1" as="geometry">
            <Array as="points">
              <mxPoint x="-180" y="190" />
              <mxPoint x="-180" y="270" />
              <mxPoint x="800" y="270" />
              <mxPoint x="800" y="-770" />
            </Array>
          </mxGeometry>
        </mxCell>
        <mxCell id="_KpGgJKSNvv7z9f8apKj-13" style="edgeStyle=orthogonalEdgeStyle;rounded=0;orthogonalLoop=1;jettySize=auto;html=1;endArrow=none;endFill=0;" parent="1" source="_KpGgJKSNvv7z9f8apKj-3" target="_KpGgJKSNvv7z9f8apKj-6" edge="1">
          <mxGeometry relative="1" as="geometry">
            <Array as="points" />
          </mxGeometry>
        </mxCell>
        <mxCell id="_KpGgJKSNvv7z9f8apKj-17" style="edgeStyle=orthogonalEdgeStyle;rounded=0;orthogonalLoop=1;jettySize=auto;html=1;endArrow=none;endFill=0;" parent="1" source="_KpGgJKSNvv7z9f8apKj-4" target="_KpGgJKSNvv7z9f8apKj-16" edge="1">
          <mxGeometry relative="1" as="geometry">
            <Array as="points">
              <mxPoint x="-240" y="-250" />
              <mxPoint x="-240" y="-80" />
              <mxPoint x="-20" y="-80" />
            </Array>
          </mxGeometry>
        </mxCell>
        <mxCell id="_KpGgJKSNvv7z9f8apKj-48" style="edgeStyle=orthogonalEdgeStyle;rounded=0;orthogonalLoop=1;jettySize=auto;html=1;startArrow=none;startFill=0;endArrow=none;endFill=0;" parent="1" source="_KpGgJKSNvv7z9f8apKj-3" target="_KpGgJKSNvv7z9f8apKj-46" edge="1">
          <mxGeometry relative="1" as="geometry">
            <Array as="points">
              <mxPoint x="-370" y="-116" />
            </Array>
          </mxGeometry>
        </mxCell>
        <mxCell id="_KpGgJKSNvv7z9f8apKj-3" value="Mueble" style="whiteSpace=wrap;html=1;align=center;" parent="1" vertex="1">
          <mxGeometry x="-400" y="24" width="100" height="40" as="geometry" />
        </mxCell>
        <mxCell id="_KpGgJKSNvv7z9f8apKj-8" style="edgeStyle=orthogonalEdgeStyle;rounded=0;orthogonalLoop=1;jettySize=auto;html=1;endArrow=none;endFill=0;" parent="1" source="_KpGgJKSNvv7z9f8apKj-4" target="_KpGgJKSNvv7z9f8apKj-1" edge="1">
          <mxGeometry relative="1" as="geometry" />
        </mxCell>
        <mxCell id="_KpGgJKSNvv7z9f8apKj-9" style="edgeStyle=orthogonalEdgeStyle;rounded=0;orthogonalLoop=1;jettySize=auto;html=1;endArrow=none;endFill=0;" parent="1" source="_KpGgJKSNvv7z9f8apKj-4" target="_KpGgJKSNvv7z9f8apKj-3" edge="1">
          <mxGeometry relative="1" as="geometry">
            <Array as="points">
              <mxPoint x="-425" y="-210" />
              <mxPoint x="-320" y="-210" />
            </Array>
          </mxGeometry>
        </mxCell>
        <mxCell id="_KpGgJKSNvv7z9f8apKj-4" value="PedidoMueble" style="shape=rhombus;perimeter=rhombusPerimeter;whiteSpace=wrap;html=1;align=center;" parent="1" vertex="1">
          <mxGeometry x="-510" y="-306" width="170" height="60" as="geometry" />
        </mxCell>
        <mxCell id="_KpGgJKSNvv7z9f8apKj-24" style="edgeStyle=orthogonalEdgeStyle;rounded=0;orthogonalLoop=1;jettySize=auto;html=1;endArrow=none;endFill=0;startArrow=classic;startFill=1;" parent="1" source="_KpGgJKSNvv7z9f8apKj-5" target="_KpGgJKSNvv7z9f8apKj-23" edge="1">
          <mxGeometry relative="1" as="geometry" />
        </mxCell>
        <mxCell id="_KpGgJKSNvv7z9f8apKj-27" style="edgeStyle=orthogonalEdgeStyle;rounded=0;orthogonalLoop=1;jettySize=auto;html=1;endArrow=none;endFill=0;startArrow=classic;startFill=1;" parent="1" source="_KpGgJKSNvv7z9f8apKj-5" target="_KpGgJKSNvv7z9f8apKj-26" edge="1">
          <mxGeometry relative="1" as="geometry" />
        </mxCell>
        <mxCell id="_KpGgJKSNvv7z9f8apKj-5" value="Administrador" style="whiteSpace=wrap;html=1;align=center;" parent="1" vertex="1">
          <mxGeometry x="-250" y="-600" width="100" height="40" as="geometry" />
        </mxCell>
        <mxCell id="_KpGgJKSNvv7z9f8apKj-6" value="MueblePropiedad" style="shape=rhombus;perimeter=rhombusPerimeter;whiteSpace=wrap;html=1;align=center;" parent="1" vertex="1">
          <mxGeometry x="-630" y="14" width="140" height="60" as="geometry" />
        </mxCell>
        <mxCell id="_KpGgJKSNvv7z9f8apKj-7" value="Propiedad" style="whiteSpace=wrap;html=1;align=center;" parent="1" vertex="1">
          <mxGeometry x="-925" y="-35" width="100" height="40" as="geometry" />
        </mxCell>
        <mxCell id="_KpGgJKSNvv7z9f8apKj-18" style="edgeStyle=orthogonalEdgeStyle;rounded=0;orthogonalLoop=1;jettySize=auto;html=1;endArrow=none;endFill=0;" parent="1" source="_KpGgJKSNvv7z9f8apKj-15" target="_KpGgJKSNvv7z9f8apKj-16" edge="1">
          <mxGeometry relative="1" as="geometry">
            <Array as="points">
              <mxPoint x="320" y="55" />
              <mxPoint x="320" y="10" />
            </Array>
          </mxGeometry>
        </mxCell>
        <mxCell id="_KpGgJKSNvv7z9f8apKj-36" style="edgeStyle=orthogonalEdgeStyle;rounded=0;orthogonalLoop=1;jettySize=auto;html=1;endArrow=none;endFill=0;" parent="1" source="_KpGgJKSNvv7z9f8apKj-15" target="_KpGgJKSNvv7z9f8apKj-32" edge="1">
          <mxGeometry relative="1" as="geometry" />
        </mxCell>
        <mxCell id="_KpGgJKSNvv7z9f8apKj-44" style="edgeStyle=orthogonalEdgeStyle;rounded=0;orthogonalLoop=1;jettySize=auto;html=1;endArrow=none;endFill=0;" parent="1" source="_KpGgJKSNvv7z9f8apKj-15" target="_KpGgJKSNvv7z9f8apKj-43" edge="1">
          <mxGeometry relative="1" as="geometry">
            <Array as="points" />
          </mxGeometry>
        </mxCell>
        <mxCell id="_KpGgJKSNvv7z9f8apKj-15" value="Factura" style="whiteSpace=wrap;html=1;align=center;" parent="1" vertex="1">
          <mxGeometry x="350" y="35" width="100" height="40" as="geometry" />
        </mxCell>
        <mxCell id="_KpGgJKSNvv7z9f8apKj-16" value="DetalleFactura" style="shape=rhombus;perimeter=rhombusPerimeter;whiteSpace=wrap;html=1;align=center;" parent="1" vertex="1">
          <mxGeometry x="-80" y="-20" width="120" height="60" as="geometry" />
        </mxCell>
        <mxCell id="_KpGgJKSNvv7z9f8apKj-31" style="edgeStyle=orthogonalEdgeStyle;rounded=0;orthogonalLoop=1;jettySize=auto;html=1;endArrow=none;endFill=0;" parent="1" source="_KpGgJKSNvv7z9f8apKj-20" target="_KpGgJKSNvv7z9f8apKj-29" edge="1">
          <mxGeometry relative="1" as="geometry">
            <Array as="points">
              <mxPoint x="410" y="-500" />
              <mxPoint x="370" y="-500" />
              <mxPoint x="370" y="-450" />
              <mxPoint x="-30" y="-450" />
            </Array>
          </mxGeometry>
        </mxCell>
        <mxCell id="_KpGgJKSNvv7z9f8apKj-20" value="Vendedor" style="whiteSpace=wrap;html=1;align=center;" parent="1" vertex="1">
          <mxGeometry x="385" y="-560" width="100" height="40" as="geometry" />
        </mxCell>
        <mxCell id="_KpGgJKSNvv7z9f8apKj-25" style="edgeStyle=orthogonalEdgeStyle;rounded=0;orthogonalLoop=1;jettySize=auto;html=1;endArrow=none;endFill=0;" parent="1" source="_KpGgJKSNvv7z9f8apKj-23" target="_KpGgJKSNvv7z9f8apKj-20" edge="1">
          <mxGeometry relative="1" as="geometry" />
        </mxCell>
        <mxCell id="_KpGgJKSNvv7z9f8apKj-23" value="Incorporar" style="shape=rhombus;perimeter=rhombusPerimeter;whiteSpace=wrap;html=1;align=center;" parent="1" vertex="1">
          <mxGeometry x="-5" y="-570" width="120" height="60" as="geometry" />
        </mxCell>
        <mxCell id="_KpGgJKSNvv7z9f8apKj-28" style="edgeStyle=orthogonalEdgeStyle;rounded=0;orthogonalLoop=1;jettySize=auto;html=1;endArrow=none;endFill=0;" parent="1" source="_KpGgJKSNvv7z9f8apKj-26" target="_KpGgJKSNvv7z9f8apKj-1" edge="1">
          <mxGeometry relative="1" as="geometry" />
        </mxCell>
        <mxCell id="_KpGgJKSNvv7z9f8apKj-26" value="Incorporar" style="shape=rhombus;perimeter=rhombusPerimeter;whiteSpace=wrap;html=1;align=center;" parent="1" vertex="1">
          <mxGeometry x="-760" y="-640" width="120" height="60" as="geometry" />
        </mxCell>
        <mxCell id="_KpGgJKSNvv7z9f8apKj-29" value="Cotizacion" style="shape=rhombus;perimeter=rhombusPerimeter;whiteSpace=wrap;html=1;align=center;" parent="1" vertex="1">
          <mxGeometry x="-90" y="-301" width="120" height="60" as="geometry" />
        </mxCell>
        <mxCell id="_KpGgJKSNvv7z9f8apKj-37" style="edgeStyle=orthogonalEdgeStyle;rounded=0;orthogonalLoop=1;jettySize=auto;html=1;entryX=1;entryY=0.5;entryDx=0;entryDy=0;" parent="1" source="_KpGgJKSNvv7z9f8apKj-32" target="_KpGgJKSNvv7z9f8apKj-20" edge="1">
          <mxGeometry relative="1" as="geometry" />
        </mxCell>
        <mxCell id="_KpGgJKSNvv7z9f8apKj-32" value="Genera" style="shape=rhombus;perimeter=rhombusPerimeter;whiteSpace=wrap;html=1;align=center;" parent="1" vertex="1">
          <mxGeometry x="655" y="-560" width="120" height="60" as="geometry" />
        </mxCell>
        <mxCell id="_KpGgJKSNvv7z9f8apKj-41" style="edgeStyle=orthogonalEdgeStyle;rounded=0;orthogonalLoop=1;jettySize=auto;html=1;endArrow=none;endFill=0;" parent="1" source="_KpGgJKSNvv7z9f8apKj-39" target="_KpGgJKSNvv7z9f8apKj-29" edge="1">
          <mxGeometry relative="1" as="geometry" />
        </mxCell>
        <mxCell id="JJ8YhjsWPTSIbALbQLkV-4" style="edgeStyle=orthogonalEdgeStyle;rounded=0;orthogonalLoop=1;jettySize=auto;html=1;endArrow=none;endFill=0;" parent="1" source="_KpGgJKSNvv7z9f8apKj-39" target="JJ8YhjsWPTSIbALbQLkV-3" edge="1">
          <mxGeometry relative="1" as="geometry" />
        </mxCell>
        <mxCell id="_KpGgJKSNvv7z9f8apKj-39" value="Cliente" style="whiteSpace=wrap;html=1;align=center;" parent="1" vertex="1">
          <mxGeometry x="295" y="-260" width="100" height="40" as="geometry" />
        </mxCell>
        <mxCell id="_KpGgJKSNvv7z9f8apKj-45" style="edgeStyle=orthogonalEdgeStyle;rounded=0;orthogonalLoop=1;jettySize=auto;html=1;" parent="1" source="_KpGgJKSNvv7z9f8apKj-43" target="_KpGgJKSNvv7z9f8apKj-39" edge="1">
          <mxGeometry relative="1" as="geometry" />
        </mxCell>
        <mxCell id="_KpGgJKSNvv7z9f8apKj-43" value="Paga" style="shape=rhombus;perimeter=rhombusPerimeter;whiteSpace=wrap;html=1;align=center;" parent="1" vertex="1">
          <mxGeometry x="285" y="-105" width="120" height="60" as="geometry" />
        </mxCell>
        <mxCell id="_KpGgJKSNvv7z9f8apKj-49" style="edgeStyle=orthogonalEdgeStyle;rounded=0;orthogonalLoop=1;jettySize=auto;html=1;endArrow=classic;endFill=1;startArrow=none;startFill=0;" parent="1" source="_KpGgJKSNvv7z9f8apKj-46" target="_KpGgJKSNvv7z9f8apKj-47" edge="1">
          <mxGeometry relative="1" as="geometry" />
        </mxCell>
        <mxCell id="_KpGgJKSNvv7z9f8apKj-46" value="contiene" style="shape=rhombus;perimeter=rhombusPerimeter;whiteSpace=wrap;html=1;align=center;" parent="1" vertex="1">
          <mxGeometry x="-560" y="-146" width="120" height="60" as="geometry" />
        </mxCell>
        <mxCell id="_KpGgJKSNvv7z9f8apKj-47" value="Tipo" style="whiteSpace=wrap;html=1;align=center;" parent="1" vertex="1">
          <mxGeometry x="-720" y="-156" width="100" height="40" as="geometry" />
        </mxCell>
        <mxCell id="_KpGgJKSNvv7z9f8apKj-52" style="edgeStyle=orthogonalEdgeStyle;rounded=0;orthogonalLoop=1;jettySize=auto;html=1;" parent="1" source="_KpGgJKSNvv7z9f8apKj-7" target="_KpGgJKSNvv7z9f8apKj-47" edge="1">
          <mxGeometry relative="1" as="geometry">
            <mxPoint x="-780.1333333333332" y="-75.9333333333334" as="sourcePoint" />
            <Array as="points">
              <mxPoint x="-875" y="-136" />
            </Array>
          </mxGeometry>
        </mxCell>
        <mxCell id="_KpGgJKSNvv7z9f8apKj-62" value="personaContacto" style="ellipse;whiteSpace=wrap;html=1;align=center;" parent="1" vertex="1">
          <mxGeometry x="-950" y="-401" width="130" height="40" as="geometry" />
        </mxCell>
        <mxCell id="_KpGgJKSNvv7z9f8apKj-69" value="idProveedor" style="ellipse;whiteSpace=wrap;html=1;align=center;fontStyle=4;" parent="1" vertex="1">
          <mxGeometry x="-690" y="-470" width="100" height="40" as="geometry" />
        </mxCell>
        <mxCell id="_KpGgJKSNvv7z9f8apKj-70" value="" style="endArrow=none;html=1;rounded=0;" parent="1" source="_KpGgJKSNvv7z9f8apKj-1" target="_KpGgJKSNvv7z9f8apKj-69" edge="1">
          <mxGeometry relative="1" as="geometry">
            <mxPoint x="-1048" y="-441" as="sourcePoint" />
            <mxPoint x="-1091" y="-396" as="targetPoint" />
          </mxGeometry>
        </mxCell>
        <mxCell id="_KpGgJKSNvv7z9f8apKj-71" value="razonSocial" style="ellipse;whiteSpace=wrap;html=1;align=center;" parent="1" vertex="1">
          <mxGeometry x="-650" y="-425" width="100" height="40" as="geometry" />
        </mxCell>
        <mxCell id="_KpGgJKSNvv7z9f8apKj-72" value="" style="endArrow=none;html=1;rounded=0;" parent="1" source="_KpGgJKSNvv7z9f8apKj-1" target="_KpGgJKSNvv7z9f8apKj-71" edge="1">
          <mxGeometry relative="1" as="geometry">
            <mxPoint x="-706" y="-396" as="sourcePoint" />
            <mxPoint x="-658" y="-424" as="targetPoint" />
          </mxGeometry>
        </mxCell>
        <mxCell id="_KpGgJKSNvv7z9f8apKj-73" value="&lt;div&gt;nit&lt;/div&gt;" style="ellipse;whiteSpace=wrap;html=1;align=center;" parent="1" vertex="1">
          <mxGeometry x="-740" y="-330" width="100" height="40" as="geometry" />
        </mxCell>
        <mxCell id="_KpGgJKSNvv7z9f8apKj-74" value="" style="endArrow=none;html=1;rounded=0;" parent="1" source="_KpGgJKSNvv7z9f8apKj-1" target="_KpGgJKSNvv7z9f8apKj-73" edge="1">
          <mxGeometry relative="1" as="geometry">
            <mxPoint x="-690" y="-380" as="sourcePoint" />
            <mxPoint x="-619" y="-386" as="targetPoint" />
          </mxGeometry>
        </mxCell>
        <mxCell id="_KpGgJKSNvv7z9f8apKj-75" value="direccion" style="ellipse;whiteSpace=wrap;html=1;align=center;" parent="1" vertex="1">
          <mxGeometry x="-650" y="-361" width="100" height="40" as="geometry" />
        </mxCell>
        <mxCell id="_KpGgJKSNvv7z9f8apKj-76" value="" style="endArrow=none;html=1;rounded=0;" parent="1" source="_KpGgJKSNvv7z9f8apKj-1" target="_KpGgJKSNvv7z9f8apKj-75" edge="1">
          <mxGeometry relative="1" as="geometry">
            <mxPoint x="-690" y="-380" as="sourcePoint" />
            <mxPoint x="-619" y="-386" as="targetPoint" />
          </mxGeometry>
        </mxCell>
        <mxCell id="_KpGgJKSNvv7z9f8apKj-78" value="" style="endArrow=none;html=1;rounded=0;" parent="1" source="_KpGgJKSNvv7z9f8apKj-1" target="JJ8YhjsWPTSIbALbQLkV-11" edge="1">
          <mxGeometry relative="1" as="geometry">
            <mxPoint x="-789" y="-356" as="sourcePoint" />
            <mxPoint x="-825.5670986214236" y="-338.39556336161036" as="targetPoint" />
          </mxGeometry>
        </mxCell>
        <mxCell id="_KpGgJKSNvv7z9f8apKj-80" value="idAdministrador" style="ellipse;whiteSpace=wrap;html=1;align=center;fontStyle=4;" parent="1" vertex="1">
          <mxGeometry x="-400" y="-630" width="120" height="40" as="geometry" />
        </mxCell>
        <mxCell id="_KpGgJKSNvv7z9f8apKj-81" value="" style="endArrow=none;html=1;rounded=0;" parent="1" source="_KpGgJKSNvv7z9f8apKj-5" target="_KpGgJKSNvv7z9f8apKj-80" edge="1">
          <mxGeometry relative="1" as="geometry">
            <mxPoint x="-190" y="-622" as="sourcePoint" />
            <mxPoint x="-142" y="-650" as="targetPoint" />
          </mxGeometry>
        </mxCell>
        <mxCell id="_KpGgJKSNvv7z9f8apKj-82" value="&lt;div&gt;nombre&lt;/div&gt;" style="ellipse;whiteSpace=wrap;html=1;align=center;" parent="1" vertex="1">
          <mxGeometry x="-330" y="-690" width="100" height="40" as="geometry" />
        </mxCell>
        <mxCell id="_KpGgJKSNvv7z9f8apKj-83" value="apellido" style="ellipse;whiteSpace=wrap;html=1;align=center;" parent="1" vertex="1">
          <mxGeometry x="-160" y="-690" width="100" height="40" as="geometry" />
        </mxCell>
        <mxCell id="_KpGgJKSNvv7z9f8apKj-84" value="correo" style="ellipse;whiteSpace=wrap;html=1;align=center;" parent="1" vertex="1">
          <mxGeometry x="-260" y="-490" width="100" height="40" as="geometry" />
        </mxCell>
        <mxCell id="_KpGgJKSNvv7z9f8apKj-85" value="clave" style="ellipse;whiteSpace=wrap;html=1;align=center;" parent="1" vertex="1">
          <mxGeometry x="-85" y="-630" width="100" height="40" as="geometry" />
        </mxCell>
        <mxCell id="_KpGgJKSNvv7z9f8apKj-86" value="" style="endArrow=none;html=1;rounded=0;" parent="1" source="_KpGgJKSNvv7z9f8apKj-5" target="_KpGgJKSNvv7z9f8apKj-82" edge="1">
          <mxGeometry relative="1" as="geometry">
            <mxPoint x="-240" y="-583" as="sourcePoint" />
            <mxPoint x="-293" y="-598" as="targetPoint" />
          </mxGeometry>
        </mxCell>
        <mxCell id="_KpGgJKSNvv7z9f8apKj-87" value="" style="endArrow=none;html=1;rounded=0;" parent="1" source="_KpGgJKSNvv7z9f8apKj-5" target="_KpGgJKSNvv7z9f8apKj-83" edge="1">
          <mxGeometry relative="1" as="geometry">
            <mxPoint x="-214" y="-590" as="sourcePoint" />
            <mxPoint x="-288" y="-652" as="targetPoint" />
          </mxGeometry>
        </mxCell>
        <mxCell id="_KpGgJKSNvv7z9f8apKj-88" value="" style="endArrow=none;html=1;rounded=0;" parent="1" source="_KpGgJKSNvv7z9f8apKj-5" target="_KpGgJKSNvv7z9f8apKj-84" edge="1">
          <mxGeometry relative="1" as="geometry">
            <mxPoint x="-192" y="-590" as="sourcePoint" />
            <mxPoint x="-198" y="-670" as="targetPoint" />
          </mxGeometry>
        </mxCell>
        <mxCell id="_KpGgJKSNvv7z9f8apKj-89" value="" style="endArrow=none;html=1;rounded=0;" parent="1" source="_KpGgJKSNvv7z9f8apKj-5" target="_KpGgJKSNvv7z9f8apKj-85" edge="1">
          <mxGeometry relative="1" as="geometry">
            <mxPoint x="-170" y="-590" as="sourcePoint" />
            <mxPoint x="-99" y="-661" as="targetPoint" />
          </mxGeometry>
        </mxCell>
        <mxCell id="_KpGgJKSNvv7z9f8apKj-96" value="idVendedor" style="ellipse;whiteSpace=wrap;html=1;align=center;fontStyle=4;" parent="1" vertex="1">
          <mxGeometry x="190" y="-590" width="120" height="40" as="geometry" />
        </mxCell>
        <mxCell id="_KpGgJKSNvv7z9f8apKj-97" value="&lt;div&gt;nombre&lt;/div&gt;" style="ellipse;whiteSpace=wrap;html=1;align=center;" parent="1" vertex="1">
          <mxGeometry x="250" y="-650" width="100" height="40" as="geometry" />
        </mxCell>
        <mxCell id="_KpGgJKSNvv7z9f8apKj-98" value="apellido" style="ellipse;whiteSpace=wrap;html=1;align=center;" parent="1" vertex="1">
          <mxGeometry x="345" y="-680" width="100" height="40" as="geometry" />
        </mxCell>
        <mxCell id="_KpGgJKSNvv7z9f8apKj-99" value="correo" style="ellipse;whiteSpace=wrap;html=1;align=center;" parent="1" vertex="1">
          <mxGeometry x="455" y="-670" width="100" height="40" as="geometry" />
        </mxCell>
        <mxCell id="_KpGgJKSNvv7z9f8apKj-100" value="&lt;div&gt;clave&lt;/div&gt;" style="ellipse;whiteSpace=wrap;html=1;align=center;" parent="1" vertex="1">
          <mxGeometry x="485" y="-450" width="100" height="40" as="geometry" />
        </mxCell>
        <mxCell id="_KpGgJKSNvv7z9f8apKj-102" value="" style="endArrow=none;html=1;rounded=0;" parent="1" source="_KpGgJKSNvv7z9f8apKj-96" target="_KpGgJKSNvv7z9f8apKj-20" edge="1">
          <mxGeometry relative="1" as="geometry">
            <mxPoint x="-260" y="-582" as="sourcePoint" />
            <mxPoint x="-192" y="-599" as="targetPoint" />
          </mxGeometry>
        </mxCell>
        <mxCell id="_KpGgJKSNvv7z9f8apKj-103" value="" style="endArrow=none;html=1;rounded=0;" parent="1" source="_KpGgJKSNvv7z9f8apKj-97" target="_KpGgJKSNvv7z9f8apKj-20" edge="1">
          <mxGeometry relative="1" as="geometry">
            <mxPoint x="210" y="-585" as="sourcePoint" />
            <mxPoint x="280" y="-559" as="targetPoint" />
          </mxGeometry>
        </mxCell>
        <mxCell id="_KpGgJKSNvv7z9f8apKj-104" value="" style="endArrow=none;html=1;rounded=0;" parent="1" source="_KpGgJKSNvv7z9f8apKj-98" target="_KpGgJKSNvv7z9f8apKj-20" edge="1">
          <mxGeometry relative="1" as="geometry">
            <mxPoint x="220" y="-642" as="sourcePoint" />
            <mxPoint x="308" y="-560" as="targetPoint" />
          </mxGeometry>
        </mxCell>
        <mxCell id="_KpGgJKSNvv7z9f8apKj-105" value="" style="endArrow=none;html=1;rounded=0;" parent="1" source="_KpGgJKSNvv7z9f8apKj-99" target="_KpGgJKSNvv7z9f8apKj-20" edge="1">
          <mxGeometry relative="1" as="geometry">
            <mxPoint x="313" y="-660" as="sourcePoint" />
            <mxPoint x="327" y="-560" as="targetPoint" />
          </mxGeometry>
        </mxCell>
        <mxCell id="_KpGgJKSNvv7z9f8apKj-106" value="" style="endArrow=none;html=1;rounded=0;" parent="1" source="_KpGgJKSNvv7z9f8apKj-100" target="_KpGgJKSNvv7z9f8apKj-20" edge="1">
          <mxGeometry relative="1" as="geometry">
            <mxPoint x="415" y="-651" as="sourcePoint" />
            <mxPoint x="345" y="-560" as="targetPoint" />
          </mxGeometry>
        </mxCell>
        <mxCell id="_KpGgJKSNvv7z9f8apKj-107" value="" style="endArrow=none;html=1;rounded=0;" parent="1" source="JJ8YhjsWPTSIbALbQLkV-9" target="_KpGgJKSNvv7z9f8apKj-20" edge="1">
          <mxGeometry relative="1" as="geometry">
            <mxPoint x="640.3862323152075" y="-512.0236745113024" as="sourcePoint" />
            <mxPoint x="380" y="-560" as="targetPoint" />
          </mxGeometry>
        </mxCell>
        <mxCell id="_KpGgJKSNvv7z9f8apKj-108" value="identificacion" style="ellipse;whiteSpace=wrap;html=1;align=center;" parent="1" vertex="1">
          <mxGeometry x="-370" y="-510" width="100" height="40" as="geometry" />
        </mxCell>
        <mxCell id="_KpGgJKSNvv7z9f8apKj-109" value="" style="endArrow=none;html=1;rounded=0;" parent="1" source="_KpGgJKSNvv7z9f8apKj-5" target="_KpGgJKSNvv7z9f8apKj-108" edge="1">
          <mxGeometry relative="1" as="geometry">
            <mxPoint x="-140" y="-577" as="sourcePoint" />
            <mxPoint x="-27" y="-593" as="targetPoint" />
          </mxGeometry>
        </mxCell>
        <mxCell id="_KpGgJKSNvv7z9f8apKj-110" value="identificacion" style="ellipse;whiteSpace=wrap;html=1;align=center;" parent="1" vertex="1">
          <mxGeometry x="520" y="-500" width="100" height="40" as="geometry" />
        </mxCell>
        <mxCell id="_KpGgJKSNvv7z9f8apKj-111" value="" style="endArrow=none;html=1;rounded=0;" parent="1" source="_KpGgJKSNvv7z9f8apKj-110" target="_KpGgJKSNvv7z9f8apKj-20" edge="1">
          <mxGeometry relative="1" as="geometry">
            <mxPoint x="372" y="-650" as="sourcePoint" />
            <mxPoint x="338" y="-560" as="targetPoint" />
          </mxGeometry>
        </mxCell>
        <mxCell id="_KpGgJKSNvv7z9f8apKj-112" value="idPropiedad" style="ellipse;whiteSpace=wrap;html=1;align=center;fontStyle=4;" parent="1" vertex="1">
          <mxGeometry x="-810" y="-46" width="100" height="40" as="geometry" />
        </mxCell>
        <mxCell id="_KpGgJKSNvv7z9f8apKj-113" value="nombre" style="ellipse;whiteSpace=wrap;html=1;align=center;" parent="1" vertex="1">
          <mxGeometry x="-1060" y="-36" width="100" height="40" as="geometry" />
        </mxCell>
        <mxCell id="_KpGgJKSNvv7z9f8apKj-114" value="descripcion" style="ellipse;whiteSpace=wrap;html=1;align=center;" parent="1" vertex="1">
          <mxGeometry x="-630" y="-56" width="100" height="40" as="geometry" />
        </mxCell>
        <mxCell id="_KpGgJKSNvv7z9f8apKj-115" value="" style="endArrow=none;html=1;rounded=0;" parent="1" source="_KpGgJKSNvv7z9f8apKj-112" target="_KpGgJKSNvv7z9f8apKj-7" edge="1">
          <mxGeometry relative="1" as="geometry">
            <mxPoint x="-749" y="-502" as="sourcePoint" />
            <mxPoint x="-720" y="-474" as="targetPoint" />
          </mxGeometry>
        </mxCell>
        <mxCell id="_KpGgJKSNvv7z9f8apKj-116" value="" style="endArrow=none;html=1;rounded=0;" parent="1" source="_KpGgJKSNvv7z9f8apKj-113" target="_KpGgJKSNvv7z9f8apKj-7" edge="1">
          <mxGeometry relative="1" as="geometry">
            <mxPoint x="-646" y="-254" as="sourcePoint" />
            <mxPoint x="-608" y="-226" as="targetPoint" />
          </mxGeometry>
        </mxCell>
        <mxCell id="_KpGgJKSNvv7z9f8apKj-117" value="" style="endArrow=none;html=1;rounded=0;" parent="1" source="_KpGgJKSNvv7z9f8apKj-114" target="_KpGgJKSNvv7z9f8apKj-6" edge="1">
          <mxGeometry relative="1" as="geometry">
            <mxPoint x="-690" y="-206" as="sourcePoint" />
            <mxPoint x="-630" y="-206" as="targetPoint" />
          </mxGeometry>
        </mxCell>
        <mxCell id="_KpGgJKSNvv7z9f8apKj-118" value="idTipo" style="ellipse;whiteSpace=wrap;html=1;align=center;fontStyle=4;" parent="1" vertex="1">
          <mxGeometry x="-760" y="-241" width="100" height="40" as="geometry" />
        </mxCell>
        <mxCell id="_KpGgJKSNvv7z9f8apKj-119" value="nombre" style="ellipse;whiteSpace=wrap;html=1;align=center;" parent="1" vertex="1">
          <mxGeometry x="-650" y="-241" width="100" height="40" as="geometry" />
        </mxCell>
        <mxCell id="_KpGgJKSNvv7z9f8apKj-121" value="" style="endArrow=none;html=1;rounded=0;" parent="1" source="_KpGgJKSNvv7z9f8apKj-118" target="_KpGgJKSNvv7z9f8apKj-47" edge="1">
          <mxGeometry relative="1" as="geometry">
            <mxPoint x="-270" y="64" as="sourcePoint" />
            <mxPoint x="-110" y="64" as="targetPoint" />
          </mxGeometry>
        </mxCell>
        <mxCell id="_KpGgJKSNvv7z9f8apKj-122" value="" style="endArrow=none;html=1;rounded=0;" parent="1" source="_KpGgJKSNvv7z9f8apKj-119" target="_KpGgJKSNvv7z9f8apKj-47" edge="1">
          <mxGeometry relative="1" as="geometry">
            <mxPoint x="-264" y="65" as="sourcePoint" />
            <mxPoint x="-227" y="24" as="targetPoint" />
          </mxGeometry>
        </mxCell>
        <mxCell id="_KpGgJKSNvv7z9f8apKj-123" value="cantidad" style="ellipse;whiteSpace=wrap;html=1;align=center;" parent="1" vertex="1">
          <mxGeometry x="-200" y="-336" width="100" height="40" as="geometry" />
        </mxCell>
        <mxCell id="_KpGgJKSNvv7z9f8apKj-124" value="" style="endArrow=none;html=1;rounded=0;" parent="1" source="_KpGgJKSNvv7z9f8apKj-29" target="_KpGgJKSNvv7z9f8apKj-123" edge="1">
          <mxGeometry relative="1" as="geometry">
            <mxPoint x="30" y="-180" as="sourcePoint" />
            <mxPoint x="190" y="-180" as="targetPoint" />
          </mxGeometry>
        </mxCell>
        <mxCell id="_KpGgJKSNvv7z9f8apKj-125" value="idCliente" style="ellipse;whiteSpace=wrap;html=1;align=center;fontStyle=4;" parent="1" vertex="1">
          <mxGeometry x="215" y="-155" width="120" height="40" as="geometry" />
        </mxCell>
        <mxCell id="_KpGgJKSNvv7z9f8apKj-126" value="&lt;div&gt;nombre&lt;/div&gt;" style="ellipse;whiteSpace=wrap;html=1;align=center;" parent="1" vertex="1">
          <mxGeometry x="175" y="-205" width="100" height="40" as="geometry" />
        </mxCell>
        <mxCell id="_KpGgJKSNvv7z9f8apKj-127" value="apellido" style="ellipse;whiteSpace=wrap;html=1;align=center;" parent="1" vertex="1">
          <mxGeometry x="175" y="-325" width="110" height="44" as="geometry" />
        </mxCell>
        <mxCell id="_KpGgJKSNvv7z9f8apKj-128" value="correo" style="ellipse;whiteSpace=wrap;html=1;align=center;" parent="1" vertex="1">
          <mxGeometry x="255" y="-365" width="100" height="40" as="geometry" />
        </mxCell>
        <mxCell id="_KpGgJKSNvv7z9f8apKj-129" value="identificacion" style="ellipse;whiteSpace=wrap;html=1;align=center;" parent="1" vertex="1">
          <mxGeometry x="445" y="-296" width="100" height="40" as="geometry" />
        </mxCell>
        <mxCell id="_KpGgJKSNvv7z9f8apKj-130" value="contraseÃ±a" style="ellipse;whiteSpace=wrap;html=1;align=center;" parent="1" vertex="1">
          <mxGeometry x="455" y="-190" width="100" height="40" as="geometry" />
        </mxCell>
        <mxCell id="_KpGgJKSNvv7z9f8apKj-132" value="" style="endArrow=none;html=1;rounded=0;" parent="1" source="_KpGgJKSNvv7z9f8apKj-125" target="_KpGgJKSNvv7z9f8apKj-39" edge="1">
          <mxGeometry relative="1" as="geometry">
            <mxPoint x="170" y="-230" as="sourcePoint" />
            <mxPoint x="330" y="-230" as="targetPoint" />
          </mxGeometry>
        </mxCell>
        <mxCell id="_KpGgJKSNvv7z9f8apKj-133" value="" style="endArrow=none;html=1;rounded=0;" parent="1" source="_KpGgJKSNvv7z9f8apKj-126" target="_KpGgJKSNvv7z9f8apKj-39" edge="1">
          <mxGeometry relative="1" as="geometry">
            <mxPoint x="150" y="-293" as="sourcePoint" />
            <mxPoint x="206" y="-260" as="targetPoint" />
          </mxGeometry>
        </mxCell>
        <mxCell id="_KpGgJKSNvv7z9f8apKj-134" value="" style="endArrow=none;html=1;rounded=0;" parent="1" source="_KpGgJKSNvv7z9f8apKj-127" target="_KpGgJKSNvv7z9f8apKj-39" edge="1">
          <mxGeometry relative="1" as="geometry">
            <mxPoint x="198" y="-336" as="sourcePoint" />
            <mxPoint x="231" y="-260" as="targetPoint" />
          </mxGeometry>
        </mxCell>
        <mxCell id="_KpGgJKSNvv7z9f8apKj-135" value="" style="endArrow=none;html=1;rounded=0;" parent="1" source="_KpGgJKSNvv7z9f8apKj-128" target="_KpGgJKSNvv7z9f8apKj-39" edge="1">
          <mxGeometry relative="1" as="geometry">
            <mxPoint x="290" y="-336" as="sourcePoint" />
            <mxPoint x="250" y="-260" as="targetPoint" />
          </mxGeometry>
        </mxCell>
        <mxCell id="_KpGgJKSNvv7z9f8apKj-136" value="" style="endArrow=none;html=1;rounded=0;" parent="1" source="_KpGgJKSNvv7z9f8apKj-129" target="_KpGgJKSNvv7z9f8apKj-39" edge="1">
          <mxGeometry relative="1" as="geometry">
            <mxPoint x="359" y="-300" as="sourcePoint" />
            <mxPoint x="279" y="-260" as="targetPoint" />
          </mxGeometry>
        </mxCell>
        <mxCell id="_KpGgJKSNvv7z9f8apKj-137" value="" style="endArrow=none;html=1;rounded=0;" parent="1" source="JJ8YhjsWPTSIbALbQLkV-10" target="_KpGgJKSNvv7z9f8apKj-39" edge="1">
          <mxGeometry relative="1" as="geometry">
            <mxPoint x="503.5145437262022" y="-169.1134569075232" as="sourcePoint" />
            <mxPoint x="290" y="-245" as="targetPoint" />
          </mxGeometry>
        </mxCell>
        <mxCell id="_KpGgJKSNvv7z9f8apKj-138" value="" style="endArrow=none;html=1;rounded=0;" parent="1" source="_KpGgJKSNvv7z9f8apKj-130" target="_KpGgJKSNvv7z9f8apKj-39" edge="1">
          <mxGeometry relative="1" as="geometry">
            <mxPoint x="376" y="-203" as="sourcePoint" />
            <mxPoint x="290" y="-226" as="targetPoint" />
          </mxGeometry>
        </mxCell>
        <mxCell id="_KpGgJKSNvv7z9f8apKj-139" value="&lt;div&gt;nombre&lt;/div&gt;" style="ellipse;whiteSpace=wrap;html=1;align=center;" parent="1" vertex="1">
          <mxGeometry x="-280" y="30" width="100" height="40" as="geometry" />
        </mxCell>
        <mxCell id="_KpGgJKSNvv7z9f8apKj-140" value="cantidad" style="ellipse;whiteSpace=wrap;html=1;align=center;" parent="1" vertex="1">
          <mxGeometry x="-510" y="-376" width="100" height="40" as="geometry" />
        </mxCell>
        <mxCell id="_KpGgJKSNvv7z9f8apKj-141" value="descripcion" style="ellipse;whiteSpace=wrap;html=1;align=center;" parent="1" vertex="1">
          <mxGeometry x="-340" y="90" width="100" height="40" as="geometry" />
        </mxCell>
        <mxCell id="_KpGgJKSNvv7z9f8apKj-142" value="" style="endArrow=none;html=1;rounded=0;" parent="1" source="_KpGgJKSNvv7z9f8apKj-140" target="_KpGgJKSNvv7z9f8apKj-4" edge="1">
          <mxGeometry relative="1" as="geometry">
            <mxPoint x="-300" y="-260" as="sourcePoint" />
            <mxPoint x="-140" y="-260" as="targetPoint" />
          </mxGeometry>
        </mxCell>
        <mxCell id="_KpGgJKSNvv7z9f8apKj-143" value="precio" style="ellipse;whiteSpace=wrap;html=1;align=center;" parent="1" vertex="1">
          <mxGeometry x="-380" y="-361" width="100" height="40" as="geometry" />
        </mxCell>
        <mxCell id="_KpGgJKSNvv7z9f8apKj-144" value="" style="endArrow=none;html=1;rounded=0;" parent="1" source="_KpGgJKSNvv7z9f8apKj-143" target="_KpGgJKSNvv7z9f8apKj-4" edge="1">
          <mxGeometry relative="1" as="geometry">
            <mxPoint x="-422" y="-346" as="sourcePoint" />
            <mxPoint x="-400" y="-291" as="targetPoint" />
          </mxGeometry>
        </mxCell>
        <mxCell id="_KpGgJKSNvv7z9f8apKj-145" value="idMueble" style="ellipse;whiteSpace=wrap;html=1;align=center;fontStyle=4;" parent="1" vertex="1">
          <mxGeometry x="-490" y="90" width="100" height="40" as="geometry" />
        </mxCell>
        <mxCell id="_KpGgJKSNvv7z9f8apKj-146" value="" style="endArrow=none;html=1;rounded=0;" parent="1" source="_KpGgJKSNvv7z9f8apKj-3" target="_KpGgJKSNvv7z9f8apKj-145" edge="1">
          <mxGeometry relative="1" as="geometry">
            <mxPoint x="-452" y="-492" as="sourcePoint" />
            <mxPoint x="-430" y="-437" as="targetPoint" />
          </mxGeometry>
        </mxCell>
        <mxCell id="_KpGgJKSNvv7z9f8apKj-147" value="" style="endArrow=none;html=1;rounded=0;" parent="1" source="_KpGgJKSNvv7z9f8apKj-3" target="_KpGgJKSNvv7z9f8apKj-139" edge="1">
          <mxGeometry relative="1" as="geometry">
            <mxPoint x="-185" y="-346" as="sourcePoint" />
            <mxPoint x="-257" y="-289" as="targetPoint" />
          </mxGeometry>
        </mxCell>
        <mxCell id="_KpGgJKSNvv7z9f8apKj-148" value="" style="endArrow=none;html=1;rounded=0;" parent="1" source="_KpGgJKSNvv7z9f8apKj-3" target="_KpGgJKSNvv7z9f8apKj-141" edge="1">
          <mxGeometry relative="1" as="geometry">
            <mxPoint x="-162" y="-346" as="sourcePoint" />
            <mxPoint x="-169" y="-256" as="targetPoint" />
          </mxGeometry>
        </mxCell>
        <mxCell id="_KpGgJKSNvv7z9f8apKj-149" value="cantidad" style="ellipse;whiteSpace=wrap;html=1;align=center;" parent="1" vertex="1">
          <mxGeometry x="5" y="40" width="100" height="40" as="geometry" />
        </mxCell>
        <mxCell id="_KpGgJKSNvv7z9f8apKj-150" value="precio" style="ellipse;whiteSpace=wrap;html=1;align=center;" parent="1" vertex="1">
          <mxGeometry x="15" y="-115" width="100" height="40" as="geometry" />
        </mxCell>
        <mxCell id="_KpGgJKSNvv7z9f8apKj-153" value="" style="endArrow=none;html=1;rounded=0;" parent="1" source="_KpGgJKSNvv7z9f8apKj-149" target="_KpGgJKSNvv7z9f8apKj-16" edge="1">
          <mxGeometry relative="1" as="geometry">
            <mxPoint x="174" y="-140" as="sourcePoint" />
            <mxPoint x="230" y="-107" as="targetPoint" />
          </mxGeometry>
        </mxCell>
        <mxCell id="_KpGgJKSNvv7z9f8apKj-154" value="" style="endArrow=none;html=1;rounded=0;" parent="1" source="_KpGgJKSNvv7z9f8apKj-150" target="_KpGgJKSNvv7z9f8apKj-16" edge="1">
          <mxGeometry relative="1" as="geometry">
            <mxPoint x="232" y="-98" as="sourcePoint" />
            <mxPoint x="297" y="-151" as="targetPoint" />
          </mxGeometry>
        </mxCell>
        <mxCell id="_KpGgJKSNvv7z9f8apKj-155" value="idFactura" style="ellipse;whiteSpace=wrap;html=1;align=center;fontStyle=4;" parent="1" vertex="1">
          <mxGeometry x="190" y="40" width="100" height="40" as="geometry" />
        </mxCell>
        <mxCell id="_KpGgJKSNvv7z9f8apKj-156" value="&lt;div&gt;iva&lt;/div&gt;" style="ellipse;whiteSpace=wrap;html=1;align=center;" parent="1" vertex="1">
          <mxGeometry x="480" y="110" width="100" height="40" as="geometry" />
        </mxCell>
        <mxCell id="_KpGgJKSNvv7z9f8apKj-157" value="cantidadTotal" style="ellipse;whiteSpace=wrap;html=1;align=center;" parent="1" vertex="1">
          <mxGeometry x="220" y="90" width="100" height="40" as="geometry" />
        </mxCell>
        <mxCell id="_KpGgJKSNvv7z9f8apKj-158" value="subTotal" style="ellipse;whiteSpace=wrap;html=1;align=center;" parent="1" vertex="1">
          <mxGeometry x="270" y="130" width="100" height="40" as="geometry" />
        </mxCell>
        <mxCell id="_KpGgJKSNvv7z9f8apKj-159" value="total" style="ellipse;whiteSpace=wrap;html=1;align=center;" parent="1" vertex="1">
          <mxGeometry x="490" y="60" width="100" height="40" as="geometry" />
        </mxCell>
        <mxCell id="_KpGgJKSNvv7z9f8apKj-162" value="horaCreacion" style="ellipse;whiteSpace=wrap;html=1;align=center;" parent="1" vertex="1">
          <mxGeometry x="420" y="150" width="100" height="40" as="geometry" />
        </mxCell>
        <mxCell id="_KpGgJKSNvv7z9f8apKj-163" value="fechaCreacion" style="ellipse;whiteSpace=wrap;html=1;align=center;" parent="1" vertex="1">
          <mxGeometry x="330" y="180" width="100" height="40" as="geometry" />
        </mxCell>
        <mxCell id="_KpGgJKSNvv7z9f8apKj-164" value="" style="endArrow=none;html=1;rounded=0;" parent="1" source="_KpGgJKSNvv7z9f8apKj-155" target="_KpGgJKSNvv7z9f8apKj-15" edge="1">
          <mxGeometry relative="1" as="geometry">
            <mxPoint x="470" y="150" as="sourcePoint" />
            <mxPoint x="630" y="150" as="targetPoint" />
          </mxGeometry>
        </mxCell>
        <mxCell id="_KpGgJKSNvv7z9f8apKj-165" value="" style="endArrow=none;html=1;rounded=0;" parent="1" source="_KpGgJKSNvv7z9f8apKj-157" target="_KpGgJKSNvv7z9f8apKj-15" edge="1">
          <mxGeometry relative="1" as="geometry">
            <mxPoint x="246" y="92" as="sourcePoint" />
            <mxPoint x="360" y="73" as="targetPoint" />
          </mxGeometry>
        </mxCell>
        <mxCell id="_KpGgJKSNvv7z9f8apKj-166" value="" style="endArrow=none;html=1;rounded=0;" parent="1" source="_KpGgJKSNvv7z9f8apKj-158" target="_KpGgJKSNvv7z9f8apKj-15" edge="1">
          <mxGeometry relative="1" as="geometry">
            <mxPoint x="340" y="200" as="sourcePoint" />
            <mxPoint x="378" y="85" as="targetPoint" />
          </mxGeometry>
        </mxCell>
        <mxCell id="_KpGgJKSNvv7z9f8apKj-167" value="" style="endArrow=none;html=1;rounded=0;" parent="1" source="_KpGgJKSNvv7z9f8apKj-163" target="_KpGgJKSNvv7z9f8apKj-15" edge="1">
          <mxGeometry relative="1" as="geometry">
            <mxPoint x="340" y="200" as="sourcePoint" />
            <mxPoint x="400" y="85" as="targetPoint" />
          </mxGeometry>
        </mxCell>
        <mxCell id="_KpGgJKSNvv7z9f8apKj-168" value="" style="endArrow=none;html=1;rounded=0;" parent="1" source="_KpGgJKSNvv7z9f8apKj-162" target="_KpGgJKSNvv7z9f8apKj-15" edge="1">
          <mxGeometry relative="1" as="geometry">
            <mxPoint x="455" y="230" as="sourcePoint" />
            <mxPoint x="415" y="85" as="targetPoint" />
          </mxGeometry>
        </mxCell>
        <mxCell id="_KpGgJKSNvv7z9f8apKj-169" value="" style="endArrow=none;html=1;rounded=0;" parent="1" source="_KpGgJKSNvv7z9f8apKj-156" target="_KpGgJKSNvv7z9f8apKj-15" edge="1">
          <mxGeometry relative="1" as="geometry">
            <mxPoint x="541" y="192" as="sourcePoint" />
            <mxPoint x="431" y="85" as="targetPoint" />
          </mxGeometry>
        </mxCell>
        <mxCell id="_KpGgJKSNvv7z9f8apKj-170" value="" style="endArrow=none;html=1;rounded=0;" parent="1" source="_KpGgJKSNvv7z9f8apKj-159" target="_KpGgJKSNvv7z9f8apKj-15" edge="1">
          <mxGeometry relative="1" as="geometry">
            <mxPoint x="600" y="141" as="sourcePoint" />
            <mxPoint x="460" y="85" as="targetPoint" />
          </mxGeometry>
        </mxCell>
        <mxCell id="JJ8YhjsWPTSIbALbQLkV-1" value="&lt;div&gt;fecha&lt;/div&gt;" style="ellipse;whiteSpace=wrap;html=1;align=center;" parent="1" vertex="1">
          <mxGeometry x="485" y="-235" width="100" height="40" as="geometry" />
        </mxCell>
        <mxCell id="JJ8YhjsWPTSIbALbQLkV-2" value="" style="endArrow=none;html=1;rounded=0;" parent="1" source="JJ8YhjsWPTSIbALbQLkV-1" target="_KpGgJKSNvv7z9f8apKj-39" edge="1">
          <mxGeometry relative="1" as="geometry">
            <mxPoint x="593" y="-268" as="sourcePoint" />
            <mxPoint x="500" y="-253" as="targetPoint" />
          </mxGeometry>
        </mxCell>
        <mxCell id="JJ8YhjsWPTSIbALbQLkV-5" style="edgeStyle=orthogonalEdgeStyle;rounded=0;orthogonalLoop=1;jettySize=auto;html=1;entryX=0.5;entryY=1;entryDx=0;entryDy=0;" parent="1" source="JJ8YhjsWPTSIbALbQLkV-3" target="_KpGgJKSNvv7z9f8apKj-20" edge="1">
          <mxGeometry relative="1" as="geometry" />
        </mxCell>
        <mxCell id="JJ8YhjsWPTSIbALbQLkV-3" value="Crea" style="shape=rhombus;perimeter=rhombusPerimeter;whiteSpace=wrap;html=1;align=center;" parent="1" vertex="1">
          <mxGeometry x="375" y="-396" width="120" height="60" as="geometry" />
        </mxCell>
        <mxCell id="JJ8YhjsWPTSIbALbQLkV-9" value="telefonosV" style="ellipse;shape=doubleEllipse;margin=3;whiteSpace=wrap;html=1;align=center;" parent="1" vertex="1">
          <mxGeometry x="205" y="-520" width="100" height="40" as="geometry" />
        </mxCell>
        <mxCell id="JJ8YhjsWPTSIbALbQLkV-10" value="telefonosC" style="ellipse;shape=doubleEllipse;margin=3;whiteSpace=wrap;html=1;align=center;" parent="1" vertex="1">
          <mxGeometry x="365" y="-155" width="100" height="40" as="geometry" />
        </mxCell>
        <mxCell id="JJ8YhjsWPTSIbALbQLkV-11" value="telefonosP" style="ellipse;shape=doubleEllipse;margin=3;whiteSpace=wrap;html=1;align=center;" parent="1" vertex="1">
          <mxGeometry x="-870" y="-336" width="100" height="40" as="geometry" />
        </mxCell>
        <mxCell id="JJ8YhjsWPTSIbALbQLkV-13" value="" style="endArrow=none;html=1;rounded=0;" parent="1" source="_KpGgJKSNvv7z9f8apKj-1" target="_KpGgJKSNvv7z9f8apKj-62" edge="1">
          <mxGeometry relative="1" as="geometry">
            <mxPoint x="-770" y="-356" as="sourcePoint" />
            <mxPoint x="-814" y="-327" as="targetPoint" />
          </mxGeometry>
        </mxCell>
        <mxCell id="19nVMRIO0W9NC6OKbyUf-1" style="edgeStyle=orthogonalEdgeStyle;rounded=0;orthogonalLoop=1;jettySize=auto;html=1;endArrow=none;endFill=0;" parent="1" source="_KpGgJKSNvv7z9f8apKj-29" target="_KpGgJKSNvv7z9f8apKj-4" edge="1">
          <mxGeometry relative="1" as="geometry" />
        </mxCell>
        <mxCell id="19nVMRIO0W9NC6OKbyUf-5" value="" style="edgeStyle=orthogonalEdgeStyle;rounded=0;orthogonalLoop=1;jettySize=auto;html=1;endArrow=none;endFill=0;" parent="1" source="_KpGgJKSNvv7z9f8apKj-6" target="_KpGgJKSNvv7z9f8apKj-7" edge="1">
          <mxGeometry relative="1" as="geometry">
            <mxPoint x="-630" y="44" as="sourcePoint" />
            <mxPoint x="-840" y="-46" as="targetPoint" />
            <Array as="points" />
          </mxGeometry>
        </mxCell>
        <mxCell id="19nVMRIO0W9NC6OKbyUf-8" value="&lt;div&gt;img&lt;/div&gt;" style="ellipse;whiteSpace=wrap;html=1;align=center;dashed=1;" parent="1" vertex="1">
          <mxGeometry x="530" y="-600" width="100" height="40" as="geometry" />
        </mxCell>
        <mxCell id="19nVMRIO0W9NC6OKbyUf-10" value="" style="endArrow=none;html=1;rounded=0;" parent="1" source="19nVMRIO0W9NC6OKbyUf-8" target="_KpGgJKSNvv7z9f8apKj-20" edge="1">
          <mxGeometry relative="1" as="geometry">
            <mxPoint x="475" y="-640" as="sourcePoint" />
            <mxPoint x="450" y="-550" as="targetPoint" />
          </mxGeometry>
        </mxCell>
        <mxCell id="19nVMRIO0W9NC6OKbyUf-11" value="&lt;div&gt;img&lt;/div&gt;" style="ellipse;whiteSpace=wrap;html=1;align=center;dashed=1;" parent="1" vertex="1">
          <mxGeometry x="-160" y="-530" width="100" height="40" as="geometry" />
        </mxCell>
        <mxCell id="19nVMRIO0W9NC6OKbyUf-14" value="" style="endArrow=none;html=1;rounded=0;" parent="1" source="19nVMRIO0W9NC6OKbyUf-11" target="_KpGgJKSNvv7z9f8apKj-5" edge="1">
          <mxGeometry relative="1" as="geometry">
            <mxPoint x="-205" y="-590" as="sourcePoint" />
            <mxPoint x="-275" y="-681" as="targetPoint" />
          </mxGeometry>
        </mxCell>
        <mxCell id="19nVMRIO0W9NC6OKbyUf-15" value="&lt;div&gt;img&lt;/div&gt;" style="ellipse;whiteSpace=wrap;html=1;align=center;dashed=1;" parent="1" vertex="1">
          <mxGeometry x="-280" y="-40" width="100" height="40" as="geometry" />
        </mxCell>
        <mxCell id="19nVMRIO0W9NC6OKbyUf-16" value="" style="endArrow=none;html=1;rounded=0;entryX=0;entryY=1;entryDx=0;entryDy=0;" parent="1" source="_KpGgJKSNvv7z9f8apKj-3" target="19nVMRIO0W9NC6OKbyUf-15" edge="1">
          <mxGeometry relative="1" as="geometry">
            <mxPoint x="-290" y="57" as="sourcePoint" />
            <mxPoint x="-270" y="58" as="targetPoint" />
          </mxGeometry>
        </mxCell>
        <mxCell id="19nVMRIO0W9NC6OKbyUf-17" value="&lt;div&gt;img&lt;/div&gt;" style="ellipse;whiteSpace=wrap;html=1;align=center;dashed=1;" parent="1" vertex="1">
          <mxGeometry x="-890" y="-470" width="100" height="40" as="geometry" />
        </mxCell>
        <mxCell id="19nVMRIO0W9NC6OKbyUf-18" value="" style="endArrow=none;html=1;rounded=0;" parent="1" source="_KpGgJKSNvv7z9f8apKj-1" target="19nVMRIO0W9NC6OKbyUf-17" edge="1">
          <mxGeometry relative="1" as="geometry">
            <mxPoint x="-706" y="-396" as="sourcePoint" />
            <mxPoint x="-658" y="-423" as="targetPoint" />
          </mxGeometry>
        </mxCell>
      </root>
    </mxGraphModel>
  </diagram>
</mxfile>
